                                        <svg aria-hidden="true" className="h-8 w-8 text-gray-400" fill="currentColor" viewBox="0 0 24 24"><path clipRule="evenodd" d="M12.315 2c2.43 0 2.784.013 3.808.06 1.064.049 1.791.218 2.427.465a4.902 4.902 0 0 1 1.772 1.153 4.902 4.902 0 0 1 1.153 1.772c.247.636.316 1.363.364 2.427.048 1.067.06 1.407.06 4.123v.08c0 2.643-.012 2.987-.06 4.043-.049 1.064-.218 1.791-.465 2.427a4.902 4.902 0 0 1-1.153 1.772 4.902 4.902 0 0 1-1.772 1.153c-.636.247-1.363.316-2.427.364-1.067.048-1.407.06-4.123.06h-.08c-2.643 0-2.987-.012-4.043-.06-1.064-.049-1.791-.218-2.427-.465a4.902 4.902 0 0 1-1.772-1.153 4.902 4.902 0 0 1-1.153-1.772c-.247-.636-.316-1.363-.364-2.427C2.013 15.013 2 14.673 2 11.952v-.08c0-2.643.012-2.987.06-4.043.049-1.064.218-1.791.465-2.427a4.902 4.902 0 0 1 1.153-1.772A4.902 4.902 0 0 1 5.45 2.525c.636-.247 1.363-.316 2.427-.364C8.93 2.013 9.27 2 11.952 2h.08v.001Zm-.001 1.942h-.08c-2.626 0-2.953.012-3.978.06-1.018.048-1.582.21-1.95.362a2.97 2.97 0 0 0-1.067.662 2.97 2.97 0 0 0-.662 1.067c-.152.368-.214.932-.262 1.95-.048 1.025-.06 1.352-.06 3.978v.08c0 2.626.012 2.953.06 3.978.048 1.018.21 1.582.362 1.95a2.97 2.97 0 0 0 .662 1.067 2.97 2.97 0 0 0 1.067.662c.368.152.932.214 1.95.262 1.025.048 1.352.06 3.978.06h.08c2.626 0 2.953-.012 3.978-.06 1.018-.048 1.582-.21 1.95-.362a2.97 2.97 0 0 0 1.067-.662 2.97 2.97 0 0 0 .662-1.067c.152-.368.214-.932.262-1.95.048-1.025.06-1.352.06-3.978v-.08c0-2.626-.012-2.953-.06-3.978-.048-1.018-.21-1.582-.362-1.95a2.97 2.97 0 0 0-.662-1.067 2.97 2.97 0 0 0-1.067-.662c-.368-.152-.932-.214-1.95-.262C15.336 3.955 15.009 3.942 12.384 3.942Z" fillRule="evenodd"></path><path d="M12 6.865a5.135 5.135 0 1 0 0 10.27 5.135 5.135 0 0 0 0-10.27Zm-3.19 5.135a3.19 3.19 0 1 1 6.38 0 3.19 3.19 0 0 1-6.38 0Z"></path><path d="M16.965 6.575a1.232 1.232 0 1 1-2.463 0 1.232 1.232 0 0 1 2.463 0Z"></path></svg>
